<svg width="22" height="23" viewBox="0 0 22 23" fill="none" xmlns="http://www.w3.org/2000/svg">
<circle cx="10.7333" cy="11.6277" r="10.7333" fill="white"/>
<path d="M8.19851 9.83887H13.2696C13.3985 9.83885 13.526 9.86672 13.6431 9.92057C13.7603 9.97442 13.8645 10.053 13.9485 10.1509C14.0324 10.2487 14.0943 10.3636 14.1297 10.4876C14.1651 10.6116 14.1733 10.7418 14.1537 10.8693L13.5925 14.515C13.5437 14.8319 13.3832 15.1208 13.1399 15.3295C12.8965 15.5382 12.5865 15.6528 12.266 15.6528H9.20163C8.88115 15.6527 8.57126 15.538 8.32804 15.3293C8.08481 15.1206 7.92432 14.8318 7.87561 14.515L7.31435 10.8693C7.29475 10.7418 7.30294 10.6116 7.33837 10.4876C7.37379 10.3636 7.43562 10.2487 7.5196 10.1509C7.60358 10.053 7.70773 9.97442 7.82492 9.92057C7.9421 9.86672 8.06954 9.83885 8.19851 9.83887Z" stroke="#1A1A1A" stroke-width="0.670833" stroke-linecap="round" stroke-linejoin="round"/>
<path d="M9.39136 11.1806V8.94445C9.39136 8.58862 9.53271 8.24736 9.78432 7.99575C10.0359 7.74414 10.3772 7.60278 10.733 7.60278C11.0889 7.60278 11.4301 7.74414 11.6817 7.99575C11.9333 8.24736 12.0747 8.58862 12.0747 8.94445V11.1806" stroke="#1A1A1A" stroke-width="0.670833" stroke-linecap="round" stroke-linejoin="round"/>
<circle cx="15.2055" cy="3.13056" r="2.90694" fill="#E2523E" stroke="white" stroke-width="0.447222"/>
</svg>
