<svg width="20" height="19" viewBox="0 0 20 19" fill="none" xmlns="http://www.w3.org/2000/svg">
<path d="M9.53784 10.6534C7.83896 10.6495 6.14005 10.677 4.44116 10.7384C4.42627 12.4055 4.48182 14.0726 4.60718 15.7355C6.31205 15.5842 8.02118 15.4958 9.7312 15.4698C9.73001 15.46 9.7274 15.45 9.72729 15.4396V15.4406L9.53784 10.6534ZM10.2439 15.4327V15.4337C10.2442 15.4442 10.2408 15.4541 10.24 15.464C12.0383 15.4497 13.8371 15.5047 15.6326 15.629C15.3572 14.0206 15.1456 12.4022 14.9988 10.7775C13.351 10.7059 11.7032 10.6656 10.0554 10.6554L10.2439 15.4327ZM9.97534 8.65247L10.0349 10.1378C11.6746 10.1477 13.3142 10.1883 14.9539 10.2589C14.9139 9.77027 14.8797 9.28073 14.8513 8.79114C14.8487 8.74641 14.8569 8.70559 14.8738 8.67004C13.241 8.63873 11.6082 8.63355 9.97534 8.65247ZM9.45972 8.65833C7.79922 8.68294 6.13877 8.73508 4.47827 8.81165C4.48287 8.83136 4.48608 8.85231 4.48608 8.87415V8.87805C4.46805 9.32587 4.45492 9.77381 4.44702 10.2218C6.13712 10.1609 7.82723 10.1332 9.51733 10.1368L9.45972 8.65833ZM16.1121 6.44934C11.8754 6.3839 7.64268 6.39872 3.41382 6.49231C3.45735 7.11135 3.44285 7.73244 3.37183 8.34875C7.68291 8.12009 11.998 8.06687 16.3171 8.1886L16.1121 6.44934ZM6.96948 3.01477C6.6205 2.97501 6.24766 2.99137 5.9353 3.10657C5.62783 3.22005 5.37953 3.42819 5.26147 3.77747C5.18798 4.1365 5.20927 4.50845 5.32104 4.85754C5.43358 5.20883 5.63503 5.52523 5.90601 5.77551C5.93161 5.79916 5.94116 5.8339 5.9353 5.86731C5.94566 5.88686 5.953 5.90663 5.95776 5.92688C7.15534 5.90877 8.35261 5.89748 9.54956 5.8927C9.53803 5.88174 9.52492 5.87242 9.5144 5.86047C9.41356 5.7459 9.36913 5.59776 9.35913 5.44836C9.33936 5.15265 9.45163 4.81652 9.59448 4.60559C9.64732 4.52739 9.70274 4.45123 9.7605 4.37708C9.45884 4.08288 9.10327 3.83356 8.92651 3.72375L8.92456 3.7218C8.33626 3.33827 7.66703 3.09617 6.96948 3.01477ZM13.7693 3.1134C13.4708 3.0474 13.088 3.10766 12.7751 3.18274H12.7742C12.1268 3.33137 11.5117 3.59743 10.9597 3.96692C10.767 4.09804 10.5877 4.24737 10.4236 4.41223C10.4481 4.44565 10.4733 4.47863 10.4968 4.51282L10.613 4.69055L10.616 4.69641L10.6609 4.79309C10.7558 5.02823 10.7801 5.31983 10.7029 5.56458C10.6636 5.68904 10.595 5.80312 10.4949 5.89172C11.5029 5.89065 12.5107 5.8931 13.5183 5.90149C13.5253 5.87367 13.5368 5.84601 13.5544 5.81946L13.5554 5.8175C13.9789 5.21388 14.221 4.5014 14.2537 3.76477C14.2544 3.54748 14.1993 3.40306 14.1179 3.30579C14.0355 3.20727 13.9161 3.14591 13.7693 3.1134ZM10.1052 4.77844C10.0379 4.8693 9.97624 4.96423 9.92554 5.06555L9.92358 5.06946C9.86961 5.16758 9.84977 5.28002 9.86401 5.39075C9.93349 5.48968 9.98744 5.5252 10.0232 5.53235C10.0514 5.53799 10.0961 5.53087 10.1619 5.45618C10.2531 5.34945 10.2751 5.23238 10.2498 5.10364C10.2296 5.00168 10.1795 4.89181 10.1052 4.77844ZM16.8572 8.38391C16.8571 8.45225 16.8303 8.51818 16.782 8.56653C16.7656 8.58293 16.7461 8.59527 16.7263 8.60657C16.6835 8.66748 16.6152 8.71093 16.5242 8.71106H16.5212C16.1292 8.69948 15.7366 8.69044 15.3445 8.68176C15.3576 8.71112 15.3661 8.74345 15.3669 8.77942C15.5066 11.1098 15.7799 13.4304 16.1843 15.7296C16.2529 15.7953 16.2775 15.8897 16.2615 15.9718C16.2407 16.077 16.1545 16.173 16.0144 16.173H16.0066V16.172C12.1356 15.8822 8.24702 15.9159 4.38159 16.2726C4.30778 16.2794 4.2425 16.2565 4.19507 16.2101C4.15348 16.1694 4.13249 16.1165 4.12476 16.0656C4.11541 16.04 4.1089 16.0132 4.10815 15.9845V15.9855C3.92034 13.6187 3.87395 11.2426 3.96948 8.87024L3.97339 8.83606C3.75831 8.84666 3.54296 8.85584 3.32788 8.86731C3.28949 8.86952 3.25359 8.86481 3.22144 8.85266C3.21473 8.85723 3.20908 8.86336 3.2019 8.86731C3.14183 8.90025 3.07042 8.90798 3.00464 8.88879L3.00171 8.88782C2.9384 8.86673 2.88536 8.8223 2.85327 8.76379C2.82298 8.70841 2.81498 8.6447 2.82788 8.58313H2.82593C2.93473 7.82278 2.95416 7.05199 2.88257 6.28723C2.87539 6.21067 2.90064 6.14459 2.948 6.09778C2.98912 6.03105 3.06076 5.98232 3.15698 5.98157L5.3103 5.93762C5.10156 5.68401 4.93901 5.39483 4.83276 5.08215C4.6919 4.66752 4.65236 4.22499 4.71851 3.79211L4.72046 3.77844L4.81909 3.80676L4.72144 3.77844C4.8334 3.39711 5.07106 3.06496 5.39526 2.83508C5.71949 2.60522 6.11164 2.49128 6.50854 2.51184L6.50757 2.51282C7.33243 2.50626 8.14464 2.71232 8.86597 3.11243H8.86694C9.32593 3.33552 9.73804 3.6398 10.0857 4.00696C10.4425 3.64594 10.863 3.35085 11.3289 3.13879L11.5916 3.01184C12.2125 2.73258 12.8836 2.57889 13.5662 2.56165H13.572C14.0488 2.57477 14.3713 2.74232 14.5613 3.01868C14.7475 3.2896 14.7937 3.64694 14.7634 4.01477C14.709 4.67563 14.4021 5.41997 14.1082 5.90735C14.8596 5.91498 15.6109 5.92473 16.3621 5.93762H16.3611C16.4292 5.93783 16.4945 5.96475 16.5427 6.01282C16.5911 6.06117 16.6188 6.12708 16.6189 6.19543C16.6189 6.2187 16.6142 6.24173 16.6082 6.26379L16.8562 8.37122L16.8582 8.38391H16.8572Z" fill="#272727" stroke="#272727" stroke-width="0.202386" stroke-linejoin="round"/>
</svg>
