<svg width="22" height="22" viewBox="0 0 22 22" fill="none" xmlns="http://www.w3.org/2000/svg">
<circle cx="10.7333" cy="10.7333" r="10.7333" fill="white"/>
<path d="M6.70825 9.83893C6.70825 10.25 6.78923 10.6571 6.94655 11.0369C7.10388 11.4168 7.33447 11.7619 7.62517 12.0526C7.91587 12.3433 8.26098 12.5739 8.6408 12.7312C9.02061 12.8885 9.4277 12.9695 9.83881 12.9695C10.2499 12.9695 10.657 12.8885 11.0368 12.7312C11.4166 12.5739 11.7617 12.3433 12.0524 12.0526C12.3431 11.7619 12.5737 11.4168 12.7311 11.0369C12.8884 10.6571 12.9694 10.25 12.9694 9.83893C12.9694 9.42782 12.8884 9.02073 12.7311 8.64092C12.5737 8.2611 12.3431 7.91599 12.0524 7.62529C11.7617 7.33459 11.4166 7.104 11.0368 6.94667C10.657 6.78935 10.2499 6.70837 9.83881 6.70837C9.4277 6.70837 9.02061 6.78935 8.6408 6.94667C8.26098 7.104 7.91587 7.33459 7.62517 7.62529C7.33447 7.91599 7.10388 8.2611 6.94655 8.64092C6.78923 9.02073 6.70825 9.42782 6.70825 9.83893Z" stroke="#1A1A1A" stroke-width="0.670833" stroke-linecap="round" stroke-linejoin="round"/>
<path d="M14.7583 14.7584L12.075 12.0751" stroke="#1A1A1A" stroke-width="0.670833" stroke-linecap="round" stroke-linejoin="round"/>
</svg>
