<svg width="17" height="15" viewBox="0 0 17 15" fill="none" xmlns="http://www.w3.org/2000/svg">
<path d="M8.7688 0.102783C8.84463 0.109695 8.91759 0.148614 8.96411 0.210205H8.96509C8.97094 0.216728 8.97648 0.223559 8.98169 0.230713L8.98853 0.240479L9.26685 0.761963C9.87765 1.96709 10.3038 3.25782 10.5325 4.59106L10.5764 4.59595L10.5754 4.59692C10.6383 4.59924 10.6978 4.62389 10.7434 4.66724C12.2495 4.83778 13.7631 4.93197 15.2786 4.95044L15.9338 4.95435L15.9846 4.95923C16.0342 4.96909 16.0801 4.99334 16.1165 5.02954C16.156 5.06905 16.1807 5.12044 16.1887 5.17505C16.2084 5.21264 16.2223 5.25534 16.22 5.302C16.217 5.36183 16.191 5.41887 16.1438 5.46606V5.46704L12.4133 9.16626C13.0022 10.9036 13.3073 12.7249 13.3137 14.5598L13.3088 14.6106C13.2989 14.6603 13.2739 14.7061 13.2375 14.7424C13.1891 14.7908 13.1234 14.8186 13.0549 14.8186C12.9885 14.8185 12.9251 14.7921 12.8772 14.7463C12.8705 14.744 12.8632 14.7434 12.8567 14.7405L12.8469 14.7356V14.7346C11.2323 13.8043 9.66162 12.8021 8.13501 11.7278C6.69765 12.8258 5.19475 13.8355 3.63306 14.7483L3.63208 14.7473C3.5736 14.7821 3.50385 14.7929 3.43774 14.7766C3.37124 14.7601 3.31406 14.7181 3.27856 14.6594C3.2459 14.6054 3.2343 14.5415 3.24536 14.4797C3.22385 14.4333 3.21567 14.3814 3.22388 14.3303L3.22583 14.3186H3.22681L4.67505 9.12036C3.21897 7.83117 1.72543 6.57336 0.193604 5.3479C0.149154 5.31234 0.118513 5.26701 0.106689 5.21509C0.0950639 5.16372 0.10341 5.1136 0.122314 5.07153C0.156798 4.99493 0.229973 4.93561 0.314697 4.91528C0.351012 4.89653 0.391219 4.88501 0.432861 4.88501H5.75122C6.5515 3.25645 7.48015 1.6942 8.52856 0.213135L8.52954 0.212158C8.59209 0.126559 8.68381 0.0950389 8.7688 0.102783ZM8.72192 0.834229C7.79556 2.18086 6.96733 3.59261 6.24438 5.05884C6.25378 5.08577 6.25996 5.11375 6.26001 5.14282C6.26001 5.21136 6.23325 5.27798 6.18481 5.32642C6.13642 5.37472 6.0706 5.40158 6.0022 5.40161H1.08618C2.46795 6.51239 3.81937 7.65985 5.13892 8.84595L5.13989 8.84692C5.14851 8.85483 5.1559 8.86364 5.16333 8.87231L6.6272 10.1077L6.63696 10.1165H6.63599C6.68032 10.1652 6.70532 10.2293 6.70532 10.2952C6.70523 10.3609 6.68024 10.4243 6.63599 10.4729L6.63403 10.4749C6.60996 10.4998 6.58101 10.5199 6.54907 10.5334C6.51722 10.5469 6.48306 10.5539 6.44849 10.554C6.41375 10.554 6.37888 10.547 6.34692 10.5334C6.31818 10.5212 6.2923 10.5033 6.26978 10.4817L5.12524 9.51294L3.84692 14.0159C5.27441 13.1558 6.65366 12.2181 7.97681 11.2043H7.97778C8.05091 11.1488 8.13316 11.1428 8.20435 11.1731C8.23715 11.1802 8.26842 11.1936 8.29712 11.2141H8.2981C9.75723 12.239 11.2541 13.2003 12.7864 14.1008C12.7354 12.4485 12.4378 10.8127 11.8987 9.24829C11.8704 9.20959 11.8488 9.16368 11.8459 9.11157C11.8423 9.04405 11.8675 8.97732 11.9231 8.92407L15.4065 5.46802C13.7287 5.45238 12.053 5.34398 10.387 5.14282V5.1438C10.3259 5.13808 10.2737 5.11441 10.2336 5.07935L9.18579 4.97388V4.9729C9.12089 4.97044 9.05905 4.94473 9.01294 4.89868C8.96457 4.85031 8.93684 4.78451 8.93677 4.71606V4.71216H8.93774C8.94026 4.64545 8.96772 4.58159 9.01489 4.53442C9.06201 4.48748 9.12515 4.45981 9.19165 4.45728H9.2063L9.20532 4.45825L9.99927 4.53833C9.76148 3.24626 9.33116 1.99797 8.72192 0.834229Z" fill="#272727" stroke="#272727" stroke-width="0.202386" stroke-linejoin="round"/>
</svg>
