<svg width="22" height="22" viewBox="0 0 22 22" fill="none" xmlns="http://www.w3.org/2000/svg">
<circle cx="10.7333" cy="10.7333" r="10.7333" fill="white"/>
<path d="M6.70825 10.7334C6.70825 11.2619 6.81236 11.7853 7.01464 12.2737C7.21691 12.762 7.51339 13.2057 7.88715 13.5795C8.2609 13.9532 8.70462 14.2497 9.19295 14.452C9.68129 14.6543 10.2047 14.7584 10.7333 14.7584C11.2618 14.7584 11.7852 14.6543 12.2736 14.452C12.7619 14.2497 13.2056 13.9532 13.5794 13.5795C13.9531 13.2057 14.2496 12.762 14.4519 12.2737C14.6541 11.7853 14.7583 11.2619 14.7583 10.7334C14.7583 10.2048 14.6541 9.68141 14.4519 9.19307C14.2496 8.70474 13.9531 8.26103 13.5794 7.88727C13.2056 7.51351 12.7619 7.21703 12.2736 7.01476C11.7852 6.81248 11.2618 6.70837 10.7333 6.70837C10.2047 6.70837 9.68129 6.81248 9.19295 7.01476C8.70462 7.21703 8.2609 7.51351 7.88715 7.88727C7.51339 8.26103 7.21691 8.70474 7.01464 9.19307C6.81236 9.68141 6.70825 10.2048 6.70825 10.7334Z" stroke="#1A1A1A" stroke-width="0.670833" stroke-linecap="round" stroke-linejoin="round"/>
<path d="M9.3916 9.83898C9.3916 10.1948 9.53296 10.5361 9.78457 10.7877C10.0362 11.0393 10.3774 11.1806 10.7333 11.1806C11.0891 11.1806 11.4304 11.0393 11.682 10.7877C11.9336 10.5361 12.0749 10.1948 12.0749 9.83898C12.0749 9.48315 11.9336 9.14189 11.682 8.89028C11.4304 8.63867 11.0891 8.49731 10.7333 8.49731C10.3774 8.49731 10.0362 8.63867 9.78457 8.89028C9.53296 9.14189 9.3916 9.48315 9.3916 9.83898Z" stroke="#1A1A1A" stroke-width="0.670833" stroke-linecap="round" stroke-linejoin="round"/>
<path d="M8.12524 13.7964C8.23594 13.4279 8.46244 13.105 8.77114 12.8755C9.07985 12.646 9.45432 12.5221 9.839 12.5222H11.6279C12.0131 12.5221 12.388 12.6463 12.6969 12.8763C13.0059 13.1064 13.2323 13.43 13.3425 13.799" stroke="#1A1A1A" stroke-width="0.670833" stroke-linecap="round" stroke-linejoin="round"/>
</svg>
